<?xml version="1.0" encoding="UTF-8" standalone="no"?>
<!DOCTYPE svg PUBLIC "-//W3C//DTD SVG 1.1//EN" "http://www.w3.org/Graphics/SVG/1.1/DTD/svg11.dtd">
<svg xmlns="http://www.w3.org/2000/svg" version="1.1" viewBox="0.00 0.00 164.00 173.00">
<path fill="#ffffff" d="
  M 32.00 145.06
  Q 32.90 140.10 32.89 135.22
  Q 32.82 100.66 32.92 66.89
  Q 32.95 57.85 36.30 46.65
  C 39.59 35.67 47.11 26.03 57.70 22.31
  Q 59.62 21.64 61.63 20.74
  C 63.03 20.11 64.49 20.16 66.00 20.21
  A 2.76 2.75 79.0 0 1 68.45 21.87
  Q 69.35 23.98 67.53 25.07
  C 64.56 26.85 61.32 28.40 58.74 30.77
  Q 53.57 35.52 51.19 42.33
  C 48.56 49.87 47.94 58.10 47.96 66.20
  Q 48.05 103.00 47.97 143.87
  Q 47.97 146.06 49.09 147.89
  Q 53.22 154.63 61.13 153.30
  Q 62.55 153.07 62.53 154.50
  L 62.48 157.73
  Q 62.47 158.87 61.33 159.01
  Q 57.40 159.52 52.92 158.92
  Q 48.41 158.32 44.17 158.16
  Q 36.70 157.87 29.94 158.66
  Q 23.50 159.41 18.27 159.00
  Q 17.11 158.91 17.08 157.74
  L 17.00 154.31
  A 1.09 1.08 4.2 0 1 18.27 153.22
  C 23.31 154.10 26.31 152.99 29.79 149.45
  Q 31.52 147.70 32.00 145.06
  Z"
/>
<path fill="#ffffff" d="
  M 135.84 30.83
  Q 135.39 31.79 134.75 35.09
  Q 134.32 37.29 134.32 39.60
  Q 134.17 77.14 134.38 88.67
  C 134.71 106.85 135.22 125.78 126.76 141.63
  C 122.96 148.76 117.85 152.85 110.97 156.43
  Q 106.31 158.85 99.13 157.95
  Q 98.52 157.87 98.34 157.28
  Q 97.70 155.21 99.59 154.20
  Q 104.65 151.52 109.18 147.04
  C 114.55 141.72 117.17 134.55 118.06 127.20
  Q 119.15 118.16 119.17 111.42
  Q 119.27 75.72 119.29 41.19
  Q 119.29 34.12 118.03 31.61
  Q 114.90 25.38 106.86 25.88
  Q 103.85 26.06 103.56 23.26
  Q 103.54 23.05 103.51 22.84
  Q 103.16 20.23 105.79 20.23
  L 147.13 20.24
  Q 147.78 20.24 147.79 20.88
  L 147.91 25.45
  Q 147.93 26.05 147.32 26.03
  C 145.12 25.98 142.75 25.64 140.73 26.65
  Q 136.89 28.57 135.84 30.83
  Z"
/>
</svg>
