<?xml version="1.0" encoding="UTF-8" standalone="no"?>
<!DOCTYPE svg PUBLIC "-//W3C//DTD SVG 1.1//EN" "http://www.w3.org/Graphics/SVG/1.1/DTD/svg11.dtd">
<svg xmlns="http://www.w3.org/2000/svg" version="1.1" viewBox="0.00 0.00 428.00 435.00">
<g stroke-width="2.00" fill="none" stroke-linecap="butt">
<path stroke="#8d939d" vector-effect="non-scaling-stroke" d="
  M 151.07 183.39
  C 150.97 158.27 152.52 128.72 174.21 111.93
  C 178.23 108.82 182.88 106.60 187.21 103.93
  Q 190.84 101.69 188.72 97.68
  C 186.36 93.20 178.94 94.83 175.33 96.32
  Q 170.22 98.43 165.16 100.58
  C 149.71 107.16 137.53 122.08 131.85 137.54
  Q 123.50 160.25 123.42 182.99
  Q 123.23 239.64 123.28 305.92
  C 123.28 312.27 122.81 318.35 121.78 324.70
  C 120.79 330.79 116.99 334.93 111.87 338.17
  C 107.05 341.21 101.26 341.23 95.80 340.41
  A 1.57 1.57 0.0 0 0 94.00 342.00
  L 94.14 349.08
  A 2.03 2.03 0.0 0 0 96.03 351.06
  C 106.65 351.80 117.22 350.40 127.54 349.68
  Q 141.61 348.69 159.08 350.76
  C 164.93 351.45 170.54 351.69 176.41 350.97
  A 1.65 1.65 0.0 0 0 177.87 349.35
  L 177.99 342.12
  Q 178.02 340.24 176.16 340.49
  Q 171.17 341.17 167.19 340.60
  C 158.78 339.41 151.05 331.13 151.09 322.36
  Q 151.37 260.84 151.07 183.39"
/>
<path stroke="#8d939d" vector-effect="non-scaling-stroke" d="
  M 259.35 105.34
  C 268.15 105.20 275.59 106.98 280.06 115.29
  C 282.33 119.49 282.79 125.41 282.80 130.25
  Q 282.84 194.28 282.63 262.25
  Q 282.58 277.96 280.23 294.76
  Q 276.71 319.98 258.06 334.48
  Q 252.46 338.84 246.30 342.39
  C 244.37 343.49 242.92 346.09 244.35 348.14
  Q 244.98 349.04 246.14 349.19
  Q 260.11 351.02 272.26 343.77
  Q 291.24 332.46 299.50 313.05
  Q 306.80 295.92 308.92 278.35
  C 311.04 260.90 311.22 244.61 310.79 226.75
  C 310.01 195.08 310.37 163.26 310.57 131.26
  Q 310.61 125.76 312.00 119.01
  Q 313.25 112.96 317.43 109.86
  C 320.34 107.69 324.01 105.58 327.56 105.55
  Q 330.97 105.52 334.60 105.67
  Q 335.62 105.71 335.60 104.68
  L 335.41 95.97
  A 1.01 1.01 0.0 0 0 334.40 94.99
  Q 298.58 94.99 258.01 94.97
  C 254.87 94.97 253.18 96.79 253.75 100.20
  C 254.31 103.56 255.94 105.39 259.35 105.34"
/>
</g>
<path fill="#1b263b" d="
  M 132.62 400.75
  Q 99.14 385.99 72.10 359.58
  C 68.75 356.30 65.66 352.62 62.49 349.00
  Q 30.83 312.91 19.18 265.48
  Q 14.98 248.38 13.47 229.97
  Q 12.76 221.36 13.06 213.73
  Q 14.76 170.98 30.33 136.18
  C 48.10 96.50 77.16 64.31 114.79 43.11
  C 123.07 38.45 132.20 33.91 141.18 30.47
  Q 167.18 20.52 192.58 18.02
  Q 239.98 13.34 284.08 29.44
  Q 292.85 32.65 303.20 37.87
  Q 317.68 45.18 326.22 50.92
  Q 333.73 55.98 344.10 64.55
  Q 352.08 71.16 358.73 78.18
  Q 374.86 95.22 386.71 114.92
  Q 389.77 120.02 392.29 125.25
  C 394.49 129.81 396.95 134.32 398.89 139.06
  Q 408.28 161.96 411.67 182.47
  Q 413.30 192.32 413.48 205.86
  Q 413.65 218.26 413.49 230.86
  C 413.37 239.64 412.57 248.00 410.85 256.57
  Q 401.17 304.66 370.88 342.73
  C 367.28 347.26 363.34 351.35 359.57 355.79
  Q 355.66 360.39 350.71 364.36
  C 348.42 366.19 346.40 368.26 344.19 370.14
  Q 317.34 392.91 285.24 404.81
  Q 224.17 427.46 160.93 410.78
  Q 147.12 407.14 132.62 400.75
  Z
  M 151.07 183.39
  C 150.97 158.27 152.52 128.72 174.21 111.93
  C 178.23 108.82 182.88 106.60 187.21 103.93
  Q 190.84 101.69 188.72 97.68
  C 186.36 93.20 178.94 94.83 175.33 96.32
  Q 170.22 98.43 165.16 100.58
  C 149.71 107.16 137.53 122.08 131.85 137.54
  Q 123.50 160.25 123.42 182.99
  Q 123.23 239.64 123.28 305.92
  C 123.28 312.27 122.81 318.35 121.78 324.70
  C 120.79 330.79 116.99 334.93 111.87 338.17
  C 107.05 341.21 101.26 341.23 95.80 340.41
  A 1.57 1.57 0.0 0 0 94.00 342.00
  L 94.14 349.08
  A 2.03 2.03 0.0 0 0 96.03 351.06
  C 106.65 351.80 117.22 350.40 127.54 349.68
  Q 141.61 348.69 159.08 350.76
  C 164.93 351.45 170.54 351.69 176.41 350.97
  A 1.65 1.65 0.0 0 0 177.87 349.35
  L 177.99 342.12
  Q 178.02 340.24 176.16 340.49
  Q 171.17 341.17 167.19 340.60
  C 158.78 339.41 151.05 331.13 151.09 322.36
  Q 151.37 260.84 151.07 183.39
  Z
  M 259.35 105.34
  C 268.15 105.20 275.59 106.98 280.06 115.29
  C 282.33 119.49 282.79 125.41 282.80 130.25
  Q 282.84 194.28 282.63 262.25
  Q 282.58 277.96 280.23 294.76
  Q 276.71 319.98 258.06 334.48
  Q 252.46 338.84 246.30 342.39
  C 244.37 343.49 242.92 346.09 244.35 348.14
  Q 244.98 349.04 246.14 349.19
  Q 260.11 351.02 272.26 343.77
  Q 291.24 332.46 299.50 313.05
  Q 306.80 295.92 308.92 278.35
  C 311.04 260.90 311.22 244.61 310.79 226.75
  C 310.01 195.08 310.37 163.26 310.57 131.26
  Q 310.61 125.76 312.00 119.01
  Q 313.25 112.96 317.43 109.86
  C 320.34 107.69 324.01 105.58 327.56 105.55
  Q 330.97 105.52 334.60 105.67
  Q 335.62 105.71 335.60 104.68
  L 335.41 95.97
  A 1.01 1.01 0.0 0 0 334.40 94.99
  Q 298.58 94.99 258.01 94.97
  C 254.87 94.97 253.18 96.79 253.75 100.20
  C 254.31 103.56 255.94 105.39 259.35 105.34
  Z"
/>
<path fill="#ffffff" d="
  M 174.21 111.93
  C 152.52 128.72 150.97 158.27 151.07 183.39
  Q 151.37 260.84 151.09 322.36
  C 151.05 331.13 158.78 339.41 167.19 340.60
  Q 171.17 341.17 176.16 340.49
  Q 178.02 340.24 177.99 342.12
  L 177.87 349.35
  A 1.65 1.65 0.0 0 1 176.41 350.97
  C 170.54 351.69 164.93 351.45 159.08 350.76
  Q 141.61 348.69 127.54 349.68
  C 117.22 350.40 106.65 351.80 96.03 351.06
  A 2.03 2.03 0.0 0 1 94.14 349.08
  L 94.00 342.00
  A 1.57 1.57 0.0 0 1 95.80 340.41
  C 101.26 341.23 107.05 341.21 111.87 338.17
  C 116.99 334.93 120.79 330.79 121.78 324.70
  C 122.81 318.35 123.28 312.27 123.28 305.92
  Q 123.23 239.64 123.42 182.99
  Q 123.50 160.25 131.85 137.54
  C 137.53 122.08 149.71 107.16 165.16 100.58
  Q 170.22 98.43 175.33 96.32
  C 178.94 94.83 186.36 93.20 188.72 97.68
  Q 190.84 101.69 187.21 103.93
  C 182.88 106.60 178.23 108.82 174.21 111.93
  Z"
/>
<path fill="#ffffff" d="
  M 280.06 115.29
  C 275.59 106.98 268.15 105.20 259.35 105.34
  C 255.94 105.39 254.31 103.56 253.75 100.20
  C 253.18 96.79 254.87 94.97 258.01 94.97
  Q 298.58 94.99 334.40 94.99
  A 1.01 1.01 0.0 0 1 335.41 95.97
  L 335.60 104.68
  Q 335.62 105.71 334.60 105.67
  Q 330.97 105.52 327.56 105.55
  C 324.01 105.58 320.34 107.69 317.43 109.86
  Q 313.25 112.96 312.00 119.01
  Q 310.61 125.76 310.57 131.26
  C 310.37 163.26 310.01 195.08 310.79 226.75
  C 311.22 244.61 311.04 260.90 308.92 278.35
  Q 306.80 295.92 299.50 313.05
  Q 291.24 332.46 272.26 343.77
  Q 260.11 351.02 246.14 349.19
  Q 244.98 349.04 244.35 348.14
  C 242.92 346.09 244.37 343.49 246.30 342.39
  Q 252.46 338.84 258.06 334.48
  Q 276.71 319.98 280.23 294.76
  Q 282.58 277.96 282.63 262.25
  Q 282.84 194.28 282.80 130.25
  C 282.79 125.41 282.33 119.49 280.06 115.29
  Z"
/>
</svg>
